# AST/ASF file generated using VICON BodyLanguage
# -----------------------------------------------
:version 1.10
:name VICON
:units
  mass 1.0
  length 0.45
  angle deg
:documentation
   .ast/.asf automatically generated from VICON data using
   VICON BodyBuilder and BodyLanguage model FoxedUp or BRILLIANT.MOD
:root
   order TX TY TZ RX RY RZ
   axis XYZ
   position 0 0 0  
   orientation 0 0 0 
:bonedata
  begin
     id 1 
     name lhipjoint
     direction 0.624716 -0.669793 0.401383 
     length 2.38238 
     axis 0 0 0  XYZ
  end
  begin
     id 2 
     name lfemur
     direction 0.34202 -0.939693 0  
     length 6.4574  
     axis 0 0 20  XYZ
    dof rx ry rz
    limits (-160.0 20.0)
           (-70.0 70.0)
           (-60.0 70.0)
  end
  begin
     id 3 
     name ltibia
     direction 0.34202 -0.939693 0   
     length 7.68739   
     axis 0 0 20   XYZ
    dof rx
    limits (-10.0 170.0)
  end
  begin
     id 4 
     name lfoot
     direction 0.0681309 -0.187188 0.979959   
     length 2.46615   
     axis -90 7.62852e-016 20   XYZ
    dof rx rz
    limits (-45.0 90.0)
           (-70.0 20.0)
  end
  begin
     id 5 
     name ltoes
     direction 1.53566e-011 -4.21819e-011 1   
     length 1.2376   
     axis -90 7.62852e-016 20   XYZ
    dof rx
    limits (-90.0 20.0)
  end
  begin
     id 6 
     name rhipjoint
     direction -0.644473 -0.655875 0.393043   
     length 2.43293  
     axis 0 0 0  XYZ 
  end
  begin
     id 7 
     name rfemur
     direction -0.34202 -0.939693 0   
     length 6.7025   
     axis 0 0 -20   XYZ
    dof rx ry rz
    limits (-160.0 20.0)
           (-70.0 70.0)
           (-70.0 60.0)
  end
  begin
     id 8 
     name rtibia
     direction -0.34202 -0.939693 0   
     length 7.80547   
     axis 0 0 -20   XYZ
    dof rx
    limits (-10.0 170.0)
 end
 begin
     id 9 
     name rfoot
     direction -0.0756734 -0.207911 0.975216   
     length 2.40315  
     axis -90 -7.62852e-016 -20   XYZ
    dof rx rz
    limits (-45.0 90.0)
           (-20.0 70.0)
  end
  begin
     id 10 
     name rtoes
     direction -1.5353e-011 -4.21879e-011 1   
     length 1.20477   
     axis -90 -7.62852e-016 -20   XYZ
    dof rx
    limits (-90.0 20.0)
  end
  begin
     id 11 
     name lowerback
     direction 0.0160353 0.987463 -0.157037   
     length 2.18572   
     axis 0 0 0   XYZ
    dof rx ry rz
    limits (-20.0 45.0)
           (-30.0 30.0)
           (-30.0 30.0)
  end
  begin
     id 12 
     name upperback
     direction -0.00499661 0.999756 0.0215076   
     length 2.18016   
     axis 0 0 0   XYZ
    dof rx ry rz
    limits (-20.0 45.0)
           (-30.0 30.0)
           (-30.0 30.0)
  end
  begin
     id 13 
     name thorax
     direction -0.00921346 0.995333 0.0960619   
     length 2.24923   
     axis 0 0 0   XYZ
    dof rx ry rz
    limits (-20.0 45.0)
           (-30.0 30.0)
           (-30.0 30.0)
  end
  begin
     id 14 
     name lowerneck
     direction 0.0274184 0.991181 0.12965   
     length 1.70911   
     axis 0 0 0   XYZ
    dof rx ry rz
    limits (-20.0 45.0)
           (-30.0 30.0)
           (-30.0 30.0)
  end
  begin
     id 15 
     name upperneck
     direction 0.0015627 0.999959 -0.00893559   
     length 1.69312   
     axis 0 0 0   XYZ
    dof rx ry rz
    limits (-20.0 45.0)
           (-30.0 30.0)
           (-30.0 30.0)
  end
  begin
     id 16
     name head
     direction -0.00230242 0.999856 -0.0168327  
     length 1.80241  
     axis 0 0 0   XYZ
    dof rx ry rz
    limits (-20.0 45.0)
           (-30.0 30.0)
           (-30.0 30.0)
  end
  begin
     id 17 
     name lclavicle
     direction 0.955523 0.290741 -0.0494489  
     length 3.84275  
     axis 0 0 0   XYZ
    dof ry rz
    limits (-20.0 10.0)
           (0.0 20.0)
  end
  begin
     id 18 
     name lhumerus
     direction 1 -4.48967e-011 -3.18382e-028   
     length 5.17714   
     axis 180 -30 -90   XYZ
    dof rx ry rz
    limits (-60.0 90.0)
           (-90.0 90.0)
           (-90.0 90.0)
  end
  begin
     id 19
     name lradius
     direction 1 -4.48968e-011 -2.22911e-027   
     length 3.43679   
     axis 180 -30 -90   XYZ
    dof rx
    limits (-10.0 170.0)
  end
  begin
     id 20
     name lwrist
     direction 1 -4.48951e-011 -6.32245e-027   
     length 1.7184   
     axis 3.57107e-015 90 90   XYZ
    dof ry
    limits (-180.0 0.0)
 end
  begin
     id 21 
     name lhand
     direction 1 -4.48924e-011 -1.26431e-026   
     length 0.573117   
     axis 8.06912e-015 90 90   XYZ
    dof rx rz
    limits (-90.0 90.0)
           (-45.0 45.0)
  end
  begin
     id 22 
     name lfingers
     direction 1 -4.49001e-011 -2.52965e-026   
     length 0.462062   
     axis 1.61381e-014 90 90   XYZ
    dof rx
    limits (0.0 90.0)
  end
  begin
     id 23
     name lthumb
     direction 0.707107 -6.35008e-011 0.707107   
     length 0.663431   
     axis -90 45 -1.62303e-014   XYZ
    dof rx rz
    limits (-45.0 45.0)
           (-45.0 45.0)
  end
  begin
     id 24 
     name rclavicle
     direction -0.963917 0.256881 -0.0698287   
     length 3.73057  
     axis 0 0 0   XYZ 
    dof ry rz
    limits (-10.0 20.0)
           (-20.0 0.0)
  end
  begin
     id 25 
     name rhumerus
     direction -1 -4.48962e-011 -2.73982e-027  
     length 5.23908   
     axis 180 30 90   XYZ
    dof rx ry rz
    limits (-90.0 60.0)
           (-90.0 90.0)
           (-90.0 90.0)
  end
  begin
     id 26 
     name rradius
     direction -1 -4.48968e-011 -4.33218e-027   
     length 3.46485   
     axis 180 30 90   XYZ
    dof rx
    limits (-10.0 170.0)
  end
  begin
     id 27 
     name rwrist
     direction -1 -4.48989e-011 -6.32372e-027   
     length 1.73243   
     axis 3.57107e-015 -90 -90   XYZ
    dof ry
    limits (-180.0 0.0)
  end
  begin
     id 28
     name rhand
     direction -1 -4.48948e-011 -1.26448e-026   
     length 0.608752   
     axis 8.06912e-015 -90 -90   XYZ
    dof rx rz
    limits (-90.0 90.0)
           (-45.0 45.0)
  end
  begin
     id 29
     name rfingers
     direction -1 -4.48962e-011 -2.52913e-026   
     length 0.490792   
     axis 1.61381e-014 -90 -90   XYZ
    dof rx
    limits (0.0 90.0)
  end
  begin
     id 30
     name rthumb
     direction -0.707107 -6.34878e-011 0.707107   
     length 0.704682   
     axis -90 -45 1.62303e-014   XYZ
    dof rx rz
    limits (-45.0 45.0)
           (-45.0 45.0)
  end
:hierarchy
  begin
    root lhipjoint rhipjoint lowerback
    lhipjoint lfemur
    lfemur ltibia
    ltibia lfoot
    lfoot ltoes
    rhipjoint rfemur
    rfemur rtibia
    rtibia rfoot
    rfoot rtoes
    lowerback upperback
    upperback thorax
    thorax lowerneck lclavicle rclavicle
    lowerneck upperneck
    upperneck head
    lclavicle lhumerus
    lhumerus lradius
    lradius lwrist
    lwrist lhand lthumb
    lhand lfingers
    rclavicle rhumerus
    rhumerus rradius
    rradius rwrist
    rwrist rhand rthumb
    rhand rfingers
  end

#!OML:ASF G:\JayActor3\Patient Classification 1\Patient 1\Session 6\male.ASF
:FULLY-SPECIFIED
:DEGREES
218
root 44.8224 15.8641 -18.4529 171.399 -74.391 -170.474
lowerback -2.92008 0.225376 3.23994
upperback 2.77515 0.0924088 0.498162
thorax 4.51133 0.131079 -1.29592
lowerneck -8.2843 6.74886 8.8561
upperneck 12.2809 8.81903 -7.03502
head 5.77737 4.21639 -2.95614
rclavicle -1.93194e-014 -7.70291e-016
rhumerus -33.2018 -11.4411 -83.356
rradius 29.8291
rwrist 2.48506
rhand -17.0087 -6.77059
rfingers 7.12502
rthumb 9.22693 -36.5487
lclavicle -1.93194e-014 -7.70291e-016
lhumerus -30.0584 8.55688 84.2657
lradius 24.8454
lwrist 15.8488
lhand -16.6789 11.0267
lfingers 7.12502
lthumb 9.54513 40.7905
rfemur -11.26 1.3491 24.735
rtibia 35.4592
rfoot -27.2402 -14.4219
rtoes 3.19484
lfemur -5.05089 7.22181 -17.3995
ltibia 24.4446
lfoot -21.2533 14.69
ltoes -2.39671
219
root 44.8238 15.8639 -18.4526 171.412 -74.4032 -170.488
lowerback -2.90102 0.230861 3.23279
upperback 2.77968 0.100932 0.492196
thorax 4.50558 0.13512 -1.29752
lowerneck -8.28566 6.7687 8.87245
upperneck 12.2936 8.84349 -7.0302
head 5.78415 4.22924 -2.95475
rclavicle -6.54374e-014 3.60297e-015
rhumerus -33.2168 -11.4281 -83.3698
rradius 29.8361
rwrist 2.45524
rhand -16.9822 -6.80561
rfingers 7.12502
rthumb 9.25254 -36.5826
lclavicle -6.54374e-014 3.60297e-015
lhumerus -30.0455 8.53042 84.273
lradius 24.878
lwrist 15.8854
lhand -16.6987 11.0196
lfingers 7.12502
lthumb 9.52603 40.7843
rfemur -11.2609 1.31022 24.7205
rtibia 35.452
rfoot -27.2282 -14.3736
rtoes 3.23749
lfemur -5.06751 7.24188 -17.4028
ltibia 24.4609
lfoot -21.2446 14.6681
ltoes -2.42051
220
root 44.8253 15.8638 -18.4522 171.428 -74.4158 -170.505
lowerback -2.87731 0.235475 3.22454
upperback 2.78255 0.108587 0.486157
thorax 4.4954 0.13862 -1.29867
lowerneck -8.29235 6.7865 8.87593
upperneck 12.3129 8.86507 -7.01343
head 5.79253 4.24073 -2.94761
rclavicle -6.36996e-014 3.3048e-015
rhumerus -33.2324 -11.4153 -83.3817
rradius 29.8385
rwrist 2.42706
rhand -16.9683 -6.83918
rfingers 7.12502
rthumb 9.26597 -36.6156
lclavicle -6.36996e-014 3.3048e-015
lhumerus -30.0385 8.50319 84.2803
lradius 24.918
lwrist 15.9238
lhand -16.7146 11.019
lfingers 7.12502
lthumb 9.51076 40.7844
rfemur -11.263 1.26749 24.7046
rtibia 35.4451
rfoot -27.2133 -14.3249
rtoes 3.26925
lfemur -5.08471 7.25618 -17.4082
ltibia 24.4772
lfoot -21.2389 14.6514
ltoes -2.43929
221
root 44.8268 15.8637 -18.4518 171.447 -74.429 -170.522
lowerback -2.85309 0.239214 3.21543
upperback 2.78426 0.115178 0.480066
thorax 4.48368 0.14154 -1.29947
lowerneck -8.30175 6.80213 8.86741
upperneck 12.3382 8.8837 -6.98533
head 5.80196 4.25088 -2.93515
rclavicle 2.76792e-014 9.31803e-015
rhumerus -33.2465 -11.406 -83.3913
rradius 29.8342
rwrist 2.40281
rhand -16.9635 -6.86812
rfingers 7.12502
rthumb 9.27052 -36.6443
lclavicle 2.76792e-014 9.31803e-015
lhumerus -30.0372 8.47424 84.2876
lradius 24.9654
lwrist 15.9666
lhand -16.7251 11.025
lfingers 7.12502
lthumb 9.50062 40.7908
rfemur -11.2661 1.2226 24.6878
rtibia 35.4378
rfoot -27.1996 -14.2718
rtoes 3.30778
lfemur -5.10453 7.26406 -17.4151
ltibia 24.4948
lfoot -21.2354 14.6399
ltoes -2.45517
222
root 44.8284 15.8636 -18.4514 171.46 -74.4443 -170.535
lowerback -2.82724 0.24222 3.20845
upperback 2.78481 0.12081 0.473418
thorax 4.46979 0.144025 -1.30211
lowerneck -8.30946 6.81787 8.85968
upperneck 12.3617 8.90243 -6.95738
head 5.81054 4.26116 -2.92292
rclavicle -5.42962e-014 3.62782e-015
rhumerus -33.2607 -11.4048 -83.3979
rradius 29.8257
rwrist 2.38796
rhand -16.9677 -6.88132
rfingers 7.12502
rthumb 9.26654 -36.6577
lclavicle -5.42962e-014 3.62782e-015
lhumerus -30.039 8.44159 84.2937
lradius 25.0164
lwrist 16.0165
lhand -16.7274 11.0345
lfingers 7.12502
lthumb 9.49841 40.8004
rfemur -11.2688 1.16986 24.6705
rtibia 35.4291
rfoot -27.1797 -14.2145
rtoes 3.32601
lfemur -5.1269 7.26807 -17.4217
ltibia 24.5148
lfoot -21.2347 14.6281
ltoes -2.45773
223
root 44.8299 15.8635 -18.4507 171.472 -74.4612 -170.545
lowerback -2.80073 0.244166 3.20376
upperback 2.78561 0.124967 0.46577
thorax 4.45573 0.145869 -1.30717
lowerneck -8.31099 6.83464 8.85545
upperneck 12.377 8.92268 -6.93227
head 5.81594 4.27235 -2.91224
rclavicle 1.05853e-014 -9.44227e-015
rhumerus -33.2706 -11.413 -83.4017
rradius 29.8087
rwrist 2.38386
rhand -16.9683 -6.88097
rfingers 7.12502
rthumb 9.26592 -36.6574
lclavicle 1.05853e-014 -9.44227e-015
lhumerus -30.0439 8.40921 84.2975
lradius 25.0728
lwrist 16.0745
lhand -16.7244 11.04
lfingers 7.12502
lthumb 9.50125 40.8058
rfemur -11.2685 1.11013 24.6511
rtibia 35.418
rfoot -27.151 -14.1504
rtoes 3.3243
lfemur -5.1511 7.27559 -17.4275
ltibia 24.5394
lfoot -21.2395 14.6069
ltoes -2.43795
224
root 44.8313 15.8633 -18.45 171.49 -74.479 -170.563
lowerback -2.77692 0.244739 3.19827
upperback 2.78826 0.127191 0.457324
thorax 4.44504 0.146802 -1.31272
lowerneck -8.3001 6.85382 8.86133
upperneck 12.3795 8.94707 -6.91991
head 5.81661 4.28552 -2.90726
rclavicle -9.84605e-015 1.00883e-014
rhumerus -33.2747 -11.4267 -83.4026
rradius 29.7845
rwrist 2.38929
rhand -16.967 -6.87173
rfingers 7.12502
rthumb 9.26722 -36.6481
lclavicle -9.84605e-015 1.00883e-014
lhumerus -30.0489 8.37974 84.2997
lradius 25.1306
lwrist 16.1436
lhand -16.7157 11.0366
lfingers 7.12502
lthumb 9.50969 40.802
rfemur -11.2645 1.04321 24.626
rtibia 35.4041
rfoot -27.1142 -14.0752
rtoes 3.30676
lfemur -5.17724 7.29519 -17.4347
ltibia 24.5697
lfoot -21.2458 14.5733
ltoes -2.41839
225
root 44.8326 15.863 -18.449 171.502 -74.4974 -170.573
lowerback -2.7536 0.24478 3.19671
upperback 2.79129 0.128507 0.448058
thorax 4.43501 0.147436 -1.32138
lowerneck -8.28413 6.87317 8.87936
upperneck 12.3751 8.97212 -6.9211
head 5.81549 4.29881 -2.90862
rclavicle -4.47266e-014 -2.93207e-015
rhumerus -33.2721 -11.4548 -83.3991
rradius 29.7498
rwrist 2.40978
rhand -16.9633 -6.85261
rfingers 7.12502
rthumb 9.27072 -36.6288
lclavicle -4.47266e-014 -2.93207e-015
lhumerus -30.0554 8.3553 84.2976
lradius 25.1898
lwrist 16.2153
lhand -16.705 11.0267
lfingers 7.12502
lthumb 9.52001 40.7917
rfemur -11.2598 0.969069 24.5997
rtibia 35.3876
rfoot -27.0712 -13.9864
rtoes 3.28643
lfemur -5.20842 7.33461 -17.4377
ltibia 24.6054
lfoot -21.2492 14.5227
ltoes -2.40708
226
root 44.834 15.8627 -18.4479 171.524 -74.5166 -170.592
lowerback -2.73032 0.242914 3.19453
upperback 2.79347 0.127367 0.438142
thorax 4.42402 0.146827 -1.33053
lowerneck -8.259 6.89567 8.90744
upperneck 12.3636 9.00248 -6.93621
head 5.81211 4.31443 -2.9158
rclavicle -3.80797e-015 1.51325e-014
rhumerus -33.2628 -11.4874 -83.3927
rradius 29.7036
rwrist 2.4382
rhand -16.9609 -6.8236
rfingers 7.12502
rthumb 9.2731 -36.5997
lclavicle -3.80797e-015 1.51325e-014
lhumerus -30.0665 8.34297 84.2908
lradius 25.2501
lwrist 16.2849
lhand -16.6933 11.0027
lfingers 7.12502
lthumb 9.53127 40.7671
rfemur -11.2557 0.887938 24.5677
rtibia 35.3686
rfoot -27.024 -13.8838
rtoes 3.27315
lfemur -5.24492 7.38713 -17.4424
ltibia 24.6456
lfoot -21.2519 14.4619
ltoes -2.39728
